<svg id="sw-js-blob-svg" viewBox="0 0 100 100" xmlns="http://www.w3.org/2000/svg" version="1.1">
    <defs> 
        <linearGradient id="sw-gradient" x1="0" x2="1" y1="1" y2="0">
            <stop id="stop1" stop-color="rgba(248, 117, 55, 1)" offset="0%"></stop>
            <stop id="stop2" stop-color="rgba(251, 168, 31, 1)" offset="100%"></stop>
        </linearGradient>
    </defs>
    <path fill="url(#sw-gradient)" d="M19.8,-24.1C26.6,-17.9,33.6,-12.5,36.3,-5.2C39.1,2.1,37.5,11.4,33.1,19.1C28.7,26.8,21.4,32.9,13.7,34.1C6.1,35.3,-2,31.6,-10.3,28.5C-18.6,25.4,-27,22.9,-32.4,17C-37.8,11.1,-40.2,1.8,-38.6,-6.8C-37.1,-15.4,-31.7,-23.4,-24.6,-29.6C-17.5,-35.8,-8.8,-40.2,-1.1,-38.8C6.5,-37.5,13,-30.4,19.8,-24.1Z" width="100%" height="100%" transform="translate(50 50)" stroke-width="0" style="transition: all 0.3s ease 0s;"></path>
</svg>